<svg xmlns="http://www.w3.org/2000/svg" width="220" height="24" viewBox="0 0 220 24"><path fill="#f03c2e33" d="M4 0h16a4 4 0 0 1 4 4v16a4 4 0 0 1-4 4H4a4 4 0 0 1-4-4V4a4 4 0 0 1 4-4"/><clipPath id="a"><path d="M2 2h20v20H2z"/></clipPath><mask id="b"><path fill="#fff" d="M2 2h20v20H2z"/></mask><image width="20" height="20" x="2" y="2" clip-path="url(#a)" href="data:image/svg+xml;utf8,%3Csvg xmlns=%22http://www.w3.org/2000/svg%22 fill=%22%23f03c2e%22 width=%2219.200000000000003%22 height=%2219.200000000000003%22 viewBox=%220 0 24 24%22%3E%3Cpath d=%22M13.09 23.549a1.54 1.54 0 0 1-2.18 0L.451 13.089a1.54 1.54 0 0 1 0-2.179l7.191-7.19 2.733 2.733a1.85 1.85 0 0 0 .964 2.326v6.66a1.849 1.849 0 1 0 1.54 0V8.957l2.508 2.508a1.85 1.85 0 1 0 1.09-1.09l-2.634-2.634a1.85 1.85 0 0 0-2.378-2.377L8.73 2.63 10.91.451a1.54 1.54 0 0 1 2.179 0l10.459 10.46a1.54 1.54 0 0 1 0 2.179z%22%3E%3C/path%3E%3C/svg%3E" mask="url(#b)" preserveAspectRatio="none"/><path fill="#81818133" d="M32 0h16a4 4 0 0 1 4 4v16a4 4 0 0 1-4 4H32a4 4 0 0 1-4-4V4a4 4 0 0 1 4-4"/><clipPath id="c"><path d="M30 2h20v20H30z"/></clipPath><mask id="d"><path fill="#fff" d="M30 2h20v20H30z"/></mask><image width="20" height="20" x="30" y="2" clip-path="url(#c)" href="data:image/svg+xml;utf8,%3Csvg xmlns=%22http://www.w3.org/2000/svg%22 fill=%22%23818181%22 width=%2219.200000000000003%22 height=%2219.200000000000003%22 viewBox=%220 0 24 24%22%3E%3Cpath d=%22M12 .297c-6.63 0-12 5.373-12 12 0 5.303 3.438 9.8 8.205 11.385.6.113.82-.258.82-.577 0-.285-.01-1.04-.015-2.04-3.338.724-4.042-1.61-4.042-1.61C4.422 18.07 3.633 17.7 3.633 17.7c-1.087-.744.084-.729.084-.729 1.205.084 1.838 1.236 1.838 1.236 1.07 1.835 2.809 1.305 3.495.998.108-.776.417-1.305.76-1.605-2.665-.3-5.466-1.332-5.466-5.93 0-1.31.465-2.38 1.235-3.22-.135-.303-.54-1.523.105-3.176 0 0 1.005-.322 3.3 1.23.96-.267 1.98-.399 3-.405 1.02.006 2.04.138 3 .405 2.28-1.552 3.285-1.23 3.285-1.23.645 1.653.24 2.873.12 3.176.765.84 1.23 1.91 1.23 3.22 0 4.61-2.805 5.625-5.475 5.92.42.36.81 1.096.81 2.22 0 1.606-.015 2.896-.015 3.286 0 .315.21.69.825.57C20.565 22.092 24 17.592 24 12.297c0-6.627-5.373-12-12-12%22%3E%3C/path%3E%3C/svg%3E" mask="url(#d)" preserveAspectRatio="none"/><path fill="#63636333" d="M60 0h16a4 4 0 0 1 4 4v16a4 4 0 0 1-4 4H60a4 4 0 0 1-4-4V4a4 4 0 0 1 4-4"/><clipPath id="e"><path d="M58 2h20v20H58z"/></clipPath><mask id="f"><path fill="#fff" d="M58 2h20v20H58z"/></mask><image width="20" height="20" x="58" y="2" clip-path="url(#e)" href="data:image/svg+xml;utf8,%3Csvg xmlns=%22http://www.w3.org/2000/svg%22 fill=%22%23636363%22 width=%2219.200000000000003%22 height=%2219.200000000000003%22 viewBox=%220 0 24 24%22%3E%3Cpath d=%22m12 1.608 12 20.784H0Z%22%3E%3C/path%3E%3C/svg%3E" mask="url(#f)" preserveAspectRatio="none"/><path fill="#c5b23b33" d="M88 0h16a4 4 0 0 1 4 4v16a4 4 0 0 1-4 4H88a4 4 0 0 1-4-4V4a4 4 0 0 1 4-4"/><clipPath id="g"><path d="M86 2h20v20H86z"/></clipPath><mask id="h"><path fill="#fff" d="M86 2h20v20H86z"/></mask><image width="20" height="20" x="86" y="2" clip-path="url(#g)" href="data:image/svg+xml;utf8,%3Csvg xmlns=%22http://www.w3.org/2000/svg%22 fill=%22%23c5b23b%22 width=%2219.200000000000003%22 height=%2219.200000000000003%22 viewBox=%220 0 24 24%22%3E%3Cpath d=%22m7.178 7.98-.1986.004a.045.045 0 0 0-.0376.0684l.104.1715a.045.045 0 0 0 .0394.0216l.1986-.004a.045.045 0 0 0 .0376-.0684l-.104-.1715a.045.045 0 0 0-.0394-.0217m-1.2178.0846-.1625.0036a.045.045 0 0 0-.0375.0683l.085.1405a.045.045 0 0 0 .0396.0218l.1625-.0036a.045.045 0 0 0 .0376-.0684l-.0852-.1405a.045.045 0 0 0-.0395-.0217m.7111.3967-.281.0058a.045.045 0 0 0-.0375.0683l.1711.2824a.045.045 0 0 0 .0395.0218l.281-.006a.045.045 0 0 0 .0376-.0683l-.1712-.2823a.045.045 0 0 0-.0395-.0217m.843.2485-.3526.0077a.045.045 0 0 0-.0375.0684l.1846.3053a.045.045 0 0 0 .0395.0217l.353-.0077a.045.045 0 0 0 .0376-.0684l-.185-.3052a.045.045 0 0 0-.0396-.0218m8.7293.1253c-.076-.0006-.152.0215-.231.067q-1.3417.7729-2.6863 1.541l.1055-.1788c.0693-.1576.027-.2242-.1445-.2242-.6025-.0005-1.205.0008-1.8076-.0014-.0887-.0005-.145.0315-.189.109-.2027.357-.409.712-.6152 1.0672h-.0004c-.2714.468-.8423 1.4118-.9034 1.5135v.0003l-1.034 1.8842.0009-.0025-.0012.0025c.08.1268.1693.2628.2575.3978l.0413.065.0015.0011c.1298.1982.26.3967.3783.5821-.1306-.2098.114.1486.1918.231.1621.172.2995.1743.4607.0023.0635-.068.1193-.144.1738-.2197.2508-.3499.4688-.7205.6872-1.0907.4539-.769.8956-1.5454 1.3432-2.3182.2004-.3458.4035-.6898.6057-1.0348.0102-.0194.0211-.0383.0314-.0576.0031 1.4098.0034 2.82.006 4.2297.0005.25.1185.318.3337.1954.543-.3089 1.0839-.6227 1.6288-.9289.171-.0964.2467-.227.2445-.4256-.0072-.6543.0018-1.3081-.0055-1.9624-.0027-.2247.0824-.376.2814-.4795.2022-.105.399-.2212.593-.34.1671-.1023.3248-.1063.4932-.0027.194.1193.3904.236.593.3395.2072.1063.2895.2653.2873.495-.0068.6425.004 1.285-.0058 1.9272-.0036.2202.0806.3593.2702.4647.521.2896 1.0361.589 1.5535.8844.2833.1617.3823.1054.3832-.2179.0027-1.0573.0072-2.1143.004-3.1716-.0004-.1612.0613-.266.1941-.3422.2283-.1306.4562-.2612.6836-.3936.1513-.0882.2972-.0832.4471.0063.2004.1194.4008.241.6084.3477s.2891.2657.2869.4953c-.0068.6426.004 1.2852-.006 1.9273-.0035.2206.0815.3598.2707.4647.526.2923 1.0465.5944 1.5693.8921.2616.149.3661.0905.3665-.209.001-.73 0-1.4603 0-2.1903h.0072c0-.73-.003-1.4603.0018-2.1902.0014-.2085-.0766-.3509-.2607-.4553a313 313 0 0 1-2.7964-1.6053c-.1946-.113-.3638-.1113-.5566.0022-.5989.3526-1.2055.6921-1.8058 1.043-.0932.054-.1589.0544-.2526 0-.616-.359-1.2365-.7093-1.8534-1.0664-.0788-.0457-.1548-.0691-.2309-.0697zm-12.9129.0017c-.0803.0008-.1604.0264-.2455.0757A334 334 0 0 1 .2735 10.526c-.1968.1116-.276.259-.2734.4827.0081.7183.0032 1.4365.0032 2.1547h.0045c0 .7358-.001 1.4716 0 2.2074.0004.2918.113.354.3701.2071.5224-.2985 1.0415-.6016 1.568-.8934.1909-.1058.2733-.2444.2701-.4642-.009-.6538-.0013-1.3081-.0045-1.962-.0009-.1927.0649-.3364.2396-.4318.2256-.1234.4471-.2536.6687-.3837.145-.0852.286-.0837.4305.0014.2067.121.4111.2467.624.3557.209.1072.286.2684.2838.4967-.0068.648.0023 1.2964-.0049 1.9444-.0023.2062.0792.3368.2571.4359.5305.2958 1.056.6012 1.5833.9024.2553.146.3647.0824.3651-.2143.003-1.338.0037-2.6762.008-4.0142l2.0724 3.2579.7471-2.3635.121.2048-.301-.5165-.0796-.1373-.1828-.314a.045.045 0 0 0-.045-.0219l-.7254.0981-.0622-.113-.0005-.001-.2337-.4008a.045.045 0 0 0-.0395-.0223l-.258.0032a.045.045 0 0 0-.0384.0676l.0316.0543-.5535.0031-.131-.2256a.045.045 0 0 0-.0393-.0224l-.2862.0021c-.019-.1645-.1007-.2811-.2593-.3713a358 358 0 0 1-2.8265-1.623c-.0856-.0495-.166-.0734-.2462-.0725m2.8363.0235-.237.0049a.045.045 0 0 0-.0375.0683l.1442.2378a.045.045 0 0 0 .0395.0217l.2368-.0049a.045.045 0 0 0 .0376-.0683l-.1441-.2378a.045.045 0 0 0-.0395-.0217m.5498.4138-.2494.0055a.045.045 0 0 0-.0376.0683l.1305.2157a.045.045 0 0 0 .0395.0217l.2495-.0054a.045.045 0 0 0 .0376-.0684l-.1306-.2157a.045.045 0 0 0-.0395-.0217m.7551.0396-.3656.0077a.045.045 0 0 0-.0375.0684l.191.3156a.045.045 0 0 0 .0393.0217l.2244-.0044.1761.2907a.045.045 0 0 0 .0395.0217l.5196-.0108a.045.045 0 0 0 .0376-.0683l-.3165-.5224a.045.045 0 0 0-.0395-.0217l-.3775.008-.0515-.0845a.045.045 0 0 0-.0394-.0216zm-1.3612.0797-.199.004a.045.045 0 0 0-.0376.0684l.104.1715a.045.045 0 0 0 .0395.0218l.1986-.004a.045.045 0 0 0 .0375-.0684l-.1035-.1715a.045.045 0 0 0-.0395-.0218m.6017.459-.2882.0057a.045.045 0 0 0-.0377.0684l.1757.29a.045.045 0 0 0 .0395.0217l.077-.0017.15.2479a.045.045 0 0 0 .0395.0217l.4724-.0099a.045.045 0 0 0 .0376-.0683l-.2878-.4746a.045.045 0 0 0-.0394-.0217l-.261.0053-.0383-.0629a.045.045 0 0 0-.0393-.0216m1.925.643-.6449.014a.045.045 0 0 0-.0376.0683l.128.2108a.045.045 0 0 0 .0394.0216l.1713-.0035.1054.1733a.045.045 0 0 0 .0394.0216l.4472-.0095a.045.045 0 0 0 .0376-.0683l-.2464-.4066a.045.045 0 0 0-.0395-.0217z%22%3E%3C/path%3E%3C/svg%3E" mask="url(#h)" preserveAspectRatio="none"/><path fill="#5fa04e33" d="M116 0h16a4 4 0 0 1 4 4v16a4 4 0 0 1-4 4h-16a4 4 0 0 1-4-4V4a4 4 0 0 1 4-4"/><clipPath id="i"><path d="M114 2h20v20h-20z"/></clipPath><mask id="j"><path fill="#fff" d="M114 2h20v20h-20z"/></mask><image width="20" height="20" x="114" y="2" clip-path="url(#i)" href="data:image/svg+xml;utf8,%3Csvg xmlns=%22http://www.w3.org/2000/svg%22 fill=%22%235fa04e%22 width=%2219.200000000000003%22 height=%2219.200000000000003%22 viewBox=%220 0 24 24%22%3E%3Cpath d=%22M11.998,24c-0.321,0-0.641-0.084-0.922-0.247l-2.936-1.737c-0.438-0.245-0.224-0.332-0.08-0.383 c0.585-0.203,0.703-0.25,1.328-0.604c0.065-0.037,0.151-0.023,0.218,0.017l2.256,1.339c0.082,0.045,0.197,0.045,0.272,0l8.795-5.076 c0.082-0.047,0.134-0.141,0.134-0.238V6.921c0-0.099-0.053-0.192-0.137-0.242l-8.791-5.072c-0.081-0.047-0.189-0.047-0.271,0 L3.075,6.68C2.99,6.729,2.936,6.825,2.936,6.921v10.15c0,0.097,0.054,0.189,0.139,0.235l2.409,1.392 c1.307,0.654,2.108-0.116,2.108-0.89V7.787c0-0.142,0.114-0.253,0.256-0.253h1.115c0.139,0,0.255,0.112,0.255,0.253v10.021 c0,1.745-0.95,2.745-2.604,2.745c-0.508,0-0.909,0-2.026-0.551L2.28,18.675c-0.57-0.329-0.922-0.945-0.922-1.604V6.921 c0-0.659,0.353-1.275,0.922-1.603l8.795-5.082c0.557-0.315,1.296-0.315,1.848,0l8.794,5.082c0.57,0.329,0.924,0.944,0.924,1.603 v10.15c0,0.659-0.354,1.273-0.924,1.604l-8.794,5.078C12.643,23.916,12.324,24,11.998,24z M19.099,13.993 c0-1.9-1.284-2.406-3.987-2.763c-2.731-0.361-3.009-0.548-3.009-1.187c0-0.528,0.235-1.233,2.258-1.233 c1.807,0,2.473,0.389,2.747,1.607c0.024,0.115,0.129,0.199,0.247,0.199h1.141c0.071,0,0.138-0.031,0.186-0.081 c0.048-0.054,0.074-0.123,0.067-0.196c-0.177-2.098-1.571-3.076-4.388-3.076c-2.508,0-4.004,1.058-4.004,2.833 c0,1.925,1.488,2.457,3.895,2.695c2.88,0.282,3.103,0.703,3.103,1.269c0,0.983-0.789,1.402-2.642,1.402 c-2.327,0-2.839-0.584-3.011-1.742c-0.02-0.124-0.126-0.215-0.253-0.215h-1.137c-0.141,0-0.254,0.112-0.254,0.253 c0,1.482,0.806,3.248,4.655,3.248C17.501,17.007,19.099,15.91,19.099,13.993z%22%3E%3C/path%3E%3C/svg%3E" mask="url(#j)" preserveAspectRatio="none"/><path fill="#63636333" d="M144 0h16a4 4 0 0 1 4 4v16a4 4 0 0 1-4 4h-16a4 4 0 0 1-4-4V4a4 4 0 0 1 4-4"/><clipPath id="k"><path d="M142 2h20v20h-20z"/></clipPath><mask id="l"><path fill="#fff" d="M142 2h20v20h-20z"/></mask><image width="20" height="20" x="142" y="2" clip-path="url(#k)" href="data:image/svg+xml;utf8,%3Csvg xmlns=%22http://www.w3.org/2000/svg%22 fill=%22%23636363%22 width=%2219.200000000000003%22 height=%2219.200000000000003%22 viewBox=%220 0 24 24%22%3E%3Cpath d=%22M1.105 18.02A11.9 11.9 0 0 1 0 12.985q0-.698.078-1.376a12 12 0 0 1 .231-1.34A12 12 0 0 1 4.025 4.02a12 12 0 0 1 5.46-2.771 12 12 0 0 1 3.428-.23c1.452.112 2.825.477 4.077 1.05a12 12 0 0 1 2.78 1.774 12.02 12.02 0 0 1 4.053 7.078A12 12 0 0 1 24 12.985q0 .454-.036.914a12 12 0 0 1-.728 3.305 12 12 0 0 1-2.38 3.875c-1.33 1.357-3.02 1.962-4.43 1.936a4.4 4.4 0 0 1-2.724-1.024c-.99-.853-1.391-1.83-1.53-2.919a5 5 0 0 1 .128-1.518c.105-.38.37-1.116.76-1.437-.455-.197-1.04-.624-1.226-.829-.045-.05-.04-.13 0-.183a.155.155 0 0 1 .177-.053c.392.134.869.267 1.372.35.66.111 1.484.25 2.317.292 2.03.1 4.153-.813 4.812-2.627s.403-3.609-1.96-4.685-3.454-2.356-5.363-3.128c-1.247-.505-2.636-.205-4.06.582-3.838 2.121-7.277 8.822-5.69 15.032a.191.191 0 0 1-.315.19 12 12 0 0 1-1.25-1.634 12 12 0 0 1-.769-1.404M11.57 6.087c.649-.051 1.214.501 1.31 1.236.13.979-.228 1.99-1.41 2.013-1.01.02-1.315-.997-1.248-1.614.066-.616.574-1.575 1.35-1.635%22%3E%3C/path%3E%3C/svg%3E" mask="url(#l)" preserveAspectRatio="none"/><path fill="#cb383733" d="M172 0h16a4 4 0 0 1 4 4v16a4 4 0 0 1-4 4h-16a4 4 0 0 1-4-4V4a4 4 0 0 1 4-4"/><clipPath id="m"><path d="M170 2h20v20h-20z"/></clipPath><mask id="n"><path fill="#fff" d="M170 2h20v20h-20z"/></mask><image width="20" height="20" x="170" y="2" clip-path="url(#m)" href="data:image/svg+xml;utf8,%3Csvg xmlns=%22http://www.w3.org/2000/svg%22 fill=%22%23cb3837%22 width=%2219.200000000000003%22 height=%2219.200000000000003%22 viewBox=%220 0 24 24%22%3E%3Cpath d=%22M1.763 0C.786 0 0 .786 0 1.763v20.474C0 23.214.786 24 1.763 24h20.474c.977 0 1.763-.786 1.763-1.763V1.763C24 .786 23.214 0 22.237 0zM5.13 5.323l13.837.019-.009 13.836h-3.464l.01-10.382h-3.456L12.04 19.17H5.113z%22%3E%3C/path%3E%3C/svg%3E" mask="url(#n)" preserveAspectRatio="none"/><path fill="#86be4333" d="M200 0h16a4 4 0 0 1 4 4v16a4 4 0 0 1-4 4h-16a4 4 0 0 1-4-4V4a4 4 0 0 1 4-4"/><clipPath id="o"><path d="M198 2h20v20h-20z"/></clipPath><mask id="p"><path fill="#fff" d="M198 2h20v20h-20z"/></mask><image width="20" height="20" x="198" y="2" clip-path="url(#o)" href="data:image/svg+xml;utf8,%3Csvg xmlns=%22http://www.w3.org/2000/svg%22 fill=%22%2386be43%22 width=%2219.200000000000003%22 height=%2219.200000000000003%22 viewBox=%220 0 24 24%22%3E%3Cpath d=%22M5.438 5.906v8.438c0 2.06 1.69 3.75 3.75 3.75h5.625c2.06 0 3.75-1.69 3.75-3.75V9.656a2.827 2.827 0 0 0-2.813-2.812 2.8 2.8 0 0 0-1.875.737A2.8 2.8 0 0 0 12 6.844a2.827 2.827 0 0 0-2.812 2.812v4.688h1.875V9.656c0-.529.408-.937.937-.937s.938.408.938.937v4.688h1.875V9.656c0-.529.408-.937.937-.937s.938.408.938.937v4.688a1.86 1.86 0 0 1-1.875 1.875H9.188a1.86 1.86 0 0 1-1.875-1.875V5.906ZM12 0C5.384 0 0 5.384 0 12s5.384 12 12 12 12-5.384 12-12S18.616 0 12 0m0 1.875A10.11 10.11 0 0 1 22.125 12 10.11 10.11 0 0 1 12 22.125 10.11 10.11 0 0 1 1.875 12 10.11 10.11 0 0 1 12 1.875%22%3E%3C/path%3E%3C/svg%3E" mask="url(#p)" preserveAspectRatio="none"/></svg>